<svg xmlns="http://www.w3.org/2000/svg" xmlns:xlink="http://www.w3.org/1999/xlink" contentStyleType="text/css" height="142px" preserveAspectRatio="none" style="width:631px;height:142px;background:#FFFFFF;" version="1.1" viewBox="0 0 631 142" width="631px" zoomAndPan="magnify"><defs/><g><!--cluster a8e41149cb5c6e0e3394e712df51b743--><g id="cluster_a8e41149cb5c6e0e3394e712df51b743"><path d="M8.5,6 L140.5,6 A3.75,3.75 0 0 1 143,8.5 L150,28.2969 L150.5,28.2969 A2.5,2.5 0 0 1 153,30.7969 L153,133.39 A2.5,2.5 0 0 1 150.5,135.89 L8.5,135.89 A2.5,2.5 0 0 1 6,133.39 L6,8.5 A2.5,2.5 0 0 1 8.5,6 " fill="none" style="stroke:#000000;stroke-width:1.5;"/><line style="stroke:#000000;stroke-width:1.5;" x1="6" x2="150" y1="28.2969" y2="28.2969"/><text fill="#000000" font-family="sans-serif" font-size="14" font-weight="bold" lengthAdjust="spacing" textLength="131" x="10" y="20.9951">dts_test_project/</text></g><!--cluster 4894e4aa80847e467a599ba62bcd5178--><g id="cluster_4894e4aa80847e467a599ba62bcd5178"><path d="M179.5,6 L269.5,6 A3.75,3.75 0 0 1 272,8.5 L279,28.2969 L302.5,28.2969 A2.5,2.5 0 0 1 305,30.7969 L305,133.39 A2.5,2.5 0 0 1 302.5,135.89 L179.5,135.89 A2.5,2.5 0 0 1 177,133.39 L177,8.5 A2.5,2.5 0 0 1 179.5,6 " fill="none" style="stroke:#000000;stroke-width:1.5;"/><line style="stroke:#000000;stroke-width:1.5;" x1="177" x2="279" y1="28.2969" y2="28.2969"/><text fill="#000000" font-family="sans-serif" font-size="14" font-weight="bold" lengthAdjust="spacing" textLength="89" x="181" y="20.9951">customers/</text></g><!--cluster 6c1fa76392551e5a66ab0320cac3a571--><g id="cluster_6c1fa76392551e5a66ab0320cac3a571"><path d="M331.5,6 L459.5,6 A3.75,3.75 0 0 1 462,8.5 L469,28.2969 L469.5,28.2969 A2.5,2.5 0 0 1 472,30.7969 L472,133.39 A2.5,2.5 0 0 1 469.5,135.89 L331.5,135.89 A2.5,2.5 0 0 1 329,133.39 L329,8.5 A2.5,2.5 0 0 1 331.5,6 " fill="none" style="stroke:#000000;stroke-width:1.5;"/><line style="stroke:#000000;stroke-width:1.5;" x1="329" x2="469" y1="28.2969" y2="28.2969"/><text fill="#000000" font-family="sans-serif" font-size="14" font-weight="bold" lengthAdjust="spacing" textLength="127" x="333" y="20.9951">dts_multi_type2/</text></g><!--cluster d938b2419d3759b0832089d3e3897a7b--><g id="cluster_d938b2419d3759b0832089d3e3897a7b"><path d="M498.5,6 L603.5,6 A3.75,3.75 0 0 1 606,8.5 L613,28.2969 L621.5,28.2969 A2.5,2.5 0 0 1 624,30.7969 L624,133.39 A2.5,2.5 0 0 1 621.5,135.89 L498.5,135.89 A2.5,2.5 0 0 1 496,133.39 L496,8.5 A2.5,2.5 0 0 1 498.5,6 " fill="none" style="stroke:#000000;stroke-width:1.5;"/><line style="stroke:#000000;stroke-width:1.5;" x1="496" x2="613" y1="28.2969" y2="28.2969"/><text fill="#000000" font-family="sans-serif" font-size="14" font-weight="bold" lengthAdjust="spacing" textLength="104" x="500" y="20.9951">dts_test_app/</text></g><!--entity 43aacb34989e9a16be800dd5e006accd--><g id="elem_43aacb34989e9a16be800dd5e006accd"><rect fill="#F1F1F1" height="78.8906" rx="2.5" ry="2.5" style="stroke:#181818;stroke-width:0.5;" width="70" x="44" y="41"/><rect fill="#F1F1F1" height="10" style="stroke:#181818;stroke-width:0.5;" width="15" x="94" y="46"/><rect fill="#F1F1F1" height="2" style="stroke:#181818;stroke-width:0.5;" width="4" x="92" y="48"/><rect fill="#F1F1F1" height="2" style="stroke:#181818;stroke-width:0.5;" width="4" x="92" y="52"/><text fill="#000000" font-family="sans-serif" font-size="14" font-weight="bold" lengthAdjust="spacing" textLength="30" x="59" y="73.9951">urls</text><text fill="#000000" font-family="sans-serif" font-size="14" lengthAdjust="spacing" textLength="4" x="59" y="90.292">&#160;</text><text fill="#000000" font-family="sans-serif" font-size="14" lengthAdjust="spacing" textLength="4" x="59" y="106.5889">&#160;</text></g><!--entity 8e05597eb10eeedc8e1966402a96600b--><g id="elem_8e05597eb10eeedc8e1966402a96600b"><rect fill="#F1F1F1" height="78.8906" rx="2.5" ry="2.5" style="stroke:#181818;stroke-width:0.5;" width="97" x="192.5" y="41"/><rect fill="#F1F1F1" height="10" style="stroke:#181818;stroke-width:0.5;" width="15" x="269.5" y="46"/><rect fill="#F1F1F1" height="2" style="stroke:#181818;stroke-width:0.5;" width="4" x="267.5" y="48"/><rect fill="#F1F1F1" height="2" style="stroke:#181818;stroke-width:0.5;" width="4" x="267.5" y="52"/><text fill="#000000" font-family="sans-serif" font-size="14" font-weight="bold" lengthAdjust="spacing" textLength="57" x="207.5" y="73.9951">models</text><text fill="#000000" font-family="sans-serif" font-size="14" lengthAdjust="spacing" textLength="4" x="207.5" y="90.292">&#160;</text><text fill="#000000" font-family="sans-serif" font-size="14" lengthAdjust="spacing" textLength="4" x="207.5" y="106.5889">&#160;</text></g><!--entity 46c23850ccaf9a6c2031c0fd68a23672--><g id="elem_46c23850ccaf9a6c2031c0fd68a23672"><rect fill="#F1F1F1" height="78.8906" rx="2.5" ry="2.5" style="stroke:#181818;stroke-width:0.5;" width="97" x="351.5" y="41"/><rect fill="#F1F1F1" height="10" style="stroke:#181818;stroke-width:0.5;" width="15" x="428.5" y="46"/><rect fill="#F1F1F1" height="2" style="stroke:#181818;stroke-width:0.5;" width="4" x="426.5" y="48"/><rect fill="#F1F1F1" height="2" style="stroke:#181818;stroke-width:0.5;" width="4" x="426.5" y="52"/><text fill="#000000" font-family="sans-serif" font-size="14" font-weight="bold" lengthAdjust="spacing" textLength="57" x="366.5" y="73.9951">models</text><text fill="#000000" font-family="sans-serif" font-size="14" lengthAdjust="spacing" textLength="4" x="366.5" y="90.292">&#160;</text><text fill="#000000" font-family="sans-serif" font-size="14" lengthAdjust="spacing" textLength="4" x="366.5" y="106.5889">&#160;</text></g><!--entity 2c475d859a36ecc647dd0122348d6275--><g id="elem_2c475d859a36ecc647dd0122348d6275"><rect fill="#F1F1F1" height="78.8906" rx="2.5" ry="2.5" style="stroke:#181818;stroke-width:0.5;" width="97" x="511.5" y="41"/><rect fill="#F1F1F1" height="10" style="stroke:#181818;stroke-width:0.5;" width="15" x="588.5" y="46"/><rect fill="#F1F1F1" height="2" style="stroke:#181818;stroke-width:0.5;" width="4" x="586.5" y="48"/><rect fill="#F1F1F1" height="2" style="stroke:#181818;stroke-width:0.5;" width="4" x="586.5" y="52"/><text fill="#000000" font-family="sans-serif" font-size="14" font-weight="bold" lengthAdjust="spacing" textLength="57" x="526.5" y="73.9951">models</text><text fill="#000000" font-family="sans-serif" font-size="14" lengthAdjust="spacing" textLength="4" x="526.5" y="90.292">&#160;</text><text fill="#000000" font-family="sans-serif" font-size="14" lengthAdjust="spacing" textLength="4" x="526.5" y="106.5889">&#160;</text></g><!--SRC=[XT3DQiD030JWkv_2vEXBjNzQwLbA2Lgj7DBQiOaTsbBwxdMJGma4UXhcz34Zmp2zZyUFu-dGpA9lSh1sLzTblzgoxkVpz6gwFkrQMLeXYyv5rf8K3Im4ZfQThtro9SVGVZKwZVDqijFQnY2Y9KGcDXQ7nGYWrcG0AAgrVMwwxd8UbgvhckQb-VxJzRAiqsZdvSP6sfWeGa0nMyGiYRa8-g8rkKntB1canDcA0pEhIkOOCOANBG3AbHsdQe_WtzdZPLYF-_LpDd_ZKLql6GFxb9mbGPG2mOEA1adPtQz6zO4Ig4hFiXK8Jg6lIE83PlylVtrTvlbcLmvKV7HSGqvSW3QNjcA1E4ikTxRNc5Ebn1BGL37cMi5v7o9Lz3azi7y0]--></g></svg>