<svg xmlns="http://www.w3.org/2000/svg" xmlns:xlink="http://www.w3.org/1999/xlink" contentStyleType="text/css" height="719px" preserveAspectRatio="none" style="width:2368px;height:719px;background:#FFFFFF;" version="1.1" viewBox="0 0 2368 719" width="2368px" zoomAndPan="magnify"><defs/><g><!--cluster d77d5e503ad1439f585ac494268b351b--><g id="cluster_d77d5e503ad1439f585ac494268b351b"><polygon fill="none" points="16,32.29,26,22.29,468,22.29,468,601.26,458,611.26,16,611.26,16,32.29" style="stroke:#181818;stroke-width:1.0;"/><line style="stroke:#181818;stroke-width:1.0;" x1="458" x2="468" y1="32.29" y2="22.29"/><line style="stroke:#181818;stroke-width:1.0;" x1="16" x2="458" y1="32.29" y2="32.29"/><line style="stroke:#181818;stroke-width:1.0;" x1="458" x2="458" y1="32.29" y2="611.26"/><text fill="#000000" font-family="sans-serif" font-size="14" font-weight="bold" lengthAdjust="spacing" textLength="21" x="227.5" y="48.2851">Db</text></g><!--cluster 2567a5ec9705eb7ac2c984033e06189d--><g id="cluster_2567a5ec9705eb7ac2c984033e06189d"><polygon fill="none" points="1092,40.44,1102,30.44,1542,30.44,1542,601.26,1532,611.26,1092,611.26,1092,40.44" style="stroke:#181818;stroke-width:1.0;"/><line style="stroke:#181818;stroke-width:1.0;" x1="1532" x2="1542" y1="40.44" y2="30.44"/><line style="stroke:#181818;stroke-width:1.0;" x1="1092" x2="1532" y1="40.44" y2="40.44"/><line style="stroke:#181818;stroke-width:1.0;" x1="1532" x2="1532" y1="40.44" y2="611.26"/><text fill="#000000" font-family="sans-serif" font-size="14" font-weight="bold" lengthAdjust="spacing" textLength="35" x="1295.5" y="56.4351">Web</text></g><!--cluster 815f91145cd6276d6aa7803466ddc2de--><g id="cluster_815f91145cd6276d6aa7803466ddc2de"><polygon fill="none" points="554,16,564,6,1006,6,1006,601.26,996,611.26,554,611.26,554,16" style="stroke:#181818;stroke-width:1.0;"/><line style="stroke:#181818;stroke-width:1.0;" x1="996" x2="1006" y1="16" y2="6"/><line style="stroke:#181818;stroke-width:1.0;" x1="554" x2="996" y1="16" y2="16"/><line style="stroke:#181818;stroke-width:1.0;" x1="996" x2="996" y1="16" y2="611.26"/><text fill="#000000" font-family="sans-serif" font-size="14" font-weight="bold" lengthAdjust="spacing" textLength="157" x="697.5" y="31.9951">Django-tenants-test</text></g><!--cluster 0bcb93b4437e41e63419e63640648aa7--><g id="cluster_0bcb93b4437e41e63419e63640648aa7"><polygon fill="none" points="1628,56.74,1638,46.74,1976,46.74,1976,601.26,1966,611.26,1628,611.26,1628,56.74" style="stroke:#181818;stroke-width:1.0;"/><line style="stroke:#181818;stroke-width:1.0;" x1="1966" x2="1976" y1="56.74" y2="46.74"/><line style="stroke:#181818;stroke-width:1.0;" x1="1628" x2="1966" y1="56.74" y2="56.74"/><line style="stroke:#181818;stroke-width:1.0;" x1="1966" x2="1966" y1="56.74" y2="611.26"/><text fill="#000000" font-family="sans-serif" font-size="14" font-weight="bold" lengthAdjust="spacing" textLength="193" x="1701.5" y="72.7351">Django-tenants-pgadmin</text></g><!--cluster 86a1b907d54bf7010394bf316e183e67--><g id="cluster_86a1b907d54bf7010394bf316e183e67"><polygon fill="none" points="2145,64.89,2155,54.89,2351,54.89,2351,363.97,2341,373.97,2145,373.97,2145,64.89" style="stroke:#181818;stroke-width:1.0;"/><line style="stroke:#181818;stroke-width:1.0;" x1="2341" x2="2351" y1="64.89" y2="54.89"/><line style="stroke:#181818;stroke-width:1.0;" x1="2145" x2="2341" y1="64.89" y2="64.89"/><line style="stroke:#181818;stroke-width:1.0;" x1="2341" x2="2341" y1="64.89" y2="373.97"/><text fill="#000000" font-family="sans-serif" font-size="14" font-weight="bold" lengthAdjust="spacing" textLength="43" x="2222.5" y="80.8851">Redis</text></g><!--entity da404c7886cf96d0280162348d39afec--><g id="elem_da404c7886cf96d0280162348d39afec"><rect fill="#F1F1F1" height="160.375" rx="2.5" ry="2.5" style="stroke:#181818;stroke-width:0.5;" width="420" x="32" y="62.29"/><rect fill="#F1F1F1" height="10" style="stroke:#181818;stroke-width:0.5;" width="15" x="432" y="67.29"/><rect fill="#F1F1F1" height="2" style="stroke:#181818;stroke-width:0.5;" width="4" x="430" y="69.29"/><rect fill="#F1F1F1" height="2" style="stroke:#181818;stroke-width:0.5;" width="4" x="430" y="73.29"/><text fill="#000000" font-family="sans-serif" font-size="14" font-weight="bold" lengthAdjust="spacing" textLength="147" x="47" y="95.2851">django_tenants_db</text><text fill="#000000" font-family="sans-serif" font-size="14" lengthAdjust="spacing" textLength="4" x="47" y="111.582">&#160;</text><text fill="#000000" font-family="sans-serif" font-size="14" lengthAdjust="spacing" textLength="113" x="47" y="127.8789">image: postgres</text><text fill="#000000" font-family="sans-serif" font-size="14" lengthAdjust="spacing" textLength="337" x="47" y="144.1757">environment: POSTGRES_USER=django_tenants</text><text fill="#000000" font-family="sans-serif" font-size="14" lengthAdjust="spacing" textLength="380" x="47" y="160.4726">environment: POSTGRES_PASSWORD=django_tenants</text><text fill="#000000" font-family="sans-serif" font-size="14" lengthAdjust="spacing" textLength="320" x="47" y="176.7695">environment: POSTGRES_DB=django_tenants</text><text fill="#000000" font-family="sans-serif" font-size="14" lengthAdjust="spacing" textLength="265" x="47" y="193.0664">environment: DATABASE_PORT=5433</text><text fill="#000000" font-family="sans-serif" font-size="14" lengthAdjust="spacing" textLength="4" x="47" y="209.3632">&#160;</text></g><!--entity 43bb4cb118845f08e05e758d93c57c6e--><g id="elem_43bb4cb118845f08e05e758d93c57c6e"><ellipse cx="365" cy="328.97" fill="#F1F1F1" rx="8" ry="8" style="stroke:#181818;stroke-width:0.5;"/><text fill="#000000" font-family="sans-serif" font-size="14" lengthAdjust="spacing" textLength="36" x="347" y="358.9651">5432</text></g><!--entity d5baecb173d637b4e1f821d6b00b6f89--><g id="elem_d5baecb173d637b4e1f821d6b00b6f89"><rect fill="#F1F1F1" height="39.2969" rx="2.5" ry="2.5" style="stroke:#181818;stroke-width:0.5;" width="189" x="147.5" y="555.97"/><polygon fill="#F1F1F1" points="319.5,560.97,319.5,574.97,331.5,574.97,331.5,566.97,325.5,560.97,319.5,560.97" style="stroke:#181818;stroke-width:0.5;"/><line style="stroke:#181818;stroke-width:0.5;" x1="325.5" x2="325.5" y1="560.97" y2="566.97"/><line style="stroke:#181818;stroke-width:0.5;" x1="331.5" x2="325.5" y1="566.97" y2="566.97"/><text fill="#000000" font-family="sans-serif" font-size="14" lengthAdjust="spacing" textLength="159" x="157.5" y="581.9651">/var/lib/postgresql/data</text></g><!--entity 712e62727bdd6a1240840b5bbcb5f8da--><g id="elem_712e62727bdd6a1240840b5bbcb5f8da"><rect fill="#F1F1F1" height="144.0781" rx="2.5" ry="2.5" style="stroke:#181818;stroke-width:0.5;" width="418" x="1108" y="70.44"/><rect fill="#F1F1F1" height="10" style="stroke:#181818;stroke-width:0.5;" width="15" x="1506" y="75.44"/><rect fill="#F1F1F1" height="2" style="stroke:#181818;stroke-width:0.5;" width="4" x="1504" y="77.44"/><rect fill="#F1F1F1" height="2" style="stroke:#181818;stroke-width:0.5;" width="4" x="1504" y="81.44"/><text fill="#000000" font-family="sans-serif" font-size="14" font-weight="bold" lengthAdjust="spacing" textLength="161" x="1123" y="103.4351">django_tenants_web</text><text fill="#000000" font-family="sans-serif" font-size="14" lengthAdjust="spacing" textLength="4" x="1123" y="119.732">&#160;</text><text fill="#000000" font-family="sans-serif" font-size="14" lengthAdjust="spacing" textLength="335" x="1123" y="136.0289">environment: DATABASE_USER=django_tenants</text><text fill="#000000" font-family="sans-serif" font-size="14" lengthAdjust="spacing" textLength="378" x="1123" y="152.3257">environment: DATABASE_PASSWORD=django_tenants</text><text fill="#000000" font-family="sans-serif" font-size="14" lengthAdjust="spacing" textLength="318" x="1123" y="168.6226">environment: DATABASE_DB=django_tenants</text><text fill="#000000" font-family="sans-serif" font-size="14" lengthAdjust="spacing" textLength="247" x="1123" y="184.9195">environment: DATABASE_HOST=db</text><text fill="#000000" font-family="sans-serif" font-size="14" lengthAdjust="spacing" textLength="4" x="1123" y="201.2164">&#160;</text></g><!--entity 3b656adaf13d7ac518f1b07b0f10bb34--><g id="elem_3b656adaf13d7ac518f1b07b0f10bb34"><ellipse cx="1439" cy="328.97" fill="#F1F1F1" rx="8" ry="8" style="stroke:#181818;stroke-width:0.5;"/><text fill="#000000" font-family="sans-serif" font-size="14" lengthAdjust="spacing" textLength="36" x="1421" y="358.9651">8088</text></g><!--entity 4ae8434c535c76df893919c2b9c9c766--><g id="elem_4ae8434c535c76df893919c2b9c9c766"><rect fill="#F1F1F1" height="39.2969" rx="2.5" ry="2.5" style="stroke:#181818;stroke-width:0.5;" width="70" x="1216" y="555.97"/><polygon fill="#F1F1F1" points="1269,560.97,1269,574.97,1281,574.97,1281,566.97,1275,560.97,1269,560.97" style="stroke:#181818;stroke-width:0.5;"/><line style="stroke:#181818;stroke-width:0.5;" x1="1275" x2="1275" y1="560.97" y2="566.97"/><line style="stroke:#181818;stroke-width:0.5;" x1="1281" x2="1275" y1="566.97" y2="566.97"/><text fill="#000000" font-family="sans-serif" font-size="14" lengthAdjust="spacing" textLength="40" x="1226" y="581.9651">/code</text></g><!--entity dca1fb4971ec22e45b398666e4e42319--><g id="elem_dca1fb4971ec22e45b398666e4e42319"><rect fill="#F1F1F1" height="192.9688" rx="2.5" ry="2.5" style="stroke:#181818;stroke-width:0.5;" width="420" x="570" y="46"/><rect fill="#F1F1F1" height="10" style="stroke:#181818;stroke-width:0.5;" width="15" x="970" y="51"/><rect fill="#F1F1F1" height="2" style="stroke:#181818;stroke-width:0.5;" width="4" x="968" y="53"/><rect fill="#F1F1F1" height="2" style="stroke:#181818;stroke-width:0.5;" width="4" x="968" y="57"/><text fill="#000000" font-family="sans-serif" font-size="14" font-weight="bold" lengthAdjust="spacing" textLength="156" x="585" y="78.9951">django-tenants-test</text><text fill="#000000" font-family="sans-serif" font-size="14" lengthAdjust="spacing" textLength="4" x="585" y="95.292">&#160;</text><text fill="#000000" font-family="sans-serif" font-size="14" lengthAdjust="spacing" textLength="337" x="585" y="111.5889">environment: POSTGRES_USER=django_tenants</text><text fill="#000000" font-family="sans-serif" font-size="14" lengthAdjust="spacing" textLength="380" x="585" y="127.8857">environment: POSTGRES_PASSWORD=django_tenants</text><text fill="#000000" font-family="sans-serif" font-size="14" lengthAdjust="spacing" textLength="335" x="585" y="144.1826">environment: DATABASE_USER=django_tenants</text><text fill="#000000" font-family="sans-serif" font-size="14" lengthAdjust="spacing" textLength="378" x="585" y="160.4795">environment: DATABASE_PASSWORD=django_tenants</text><text fill="#000000" font-family="sans-serif" font-size="14" lengthAdjust="spacing" textLength="318" x="585" y="176.7764">environment: DATABASE_DB=django_tenants</text><text fill="#000000" font-family="sans-serif" font-size="14" lengthAdjust="spacing" textLength="247" x="585" y="193.0732">environment: DATABASE_HOST=db</text><text fill="#000000" font-family="sans-serif" font-size="14" lengthAdjust="spacing" textLength="72" x="585" y="209.3701">restart: no</text><text fill="#000000" font-family="sans-serif" font-size="14" lengthAdjust="spacing" textLength="4" x="585" y="225.667">&#160;</text></g><!--entity 77f67177125d86cd65022fe3226b748f--><g id="elem_77f67177125d86cd65022fe3226b748f"><ellipse cx="933" cy="328.97" fill="#F1F1F1" rx="8" ry="8" style="stroke:#181818;stroke-width:0.5;"/><text fill="#000000" font-family="sans-serif" font-size="14" lengthAdjust="spacing" textLength="36" x="915" y="358.9651">8080</text></g><!--entity 347d2669b673f390c7a7435cc1adde9d--><g id="elem_347d2669b673f390c7a7435cc1adde9d"><rect fill="#F1F1F1" height="39.2969" rx="2.5" ry="2.5" style="stroke:#181818;stroke-width:0.5;" width="70" x="863" y="555.97"/><polygon fill="#F1F1F1" points="916,560.97,916,574.97,928,574.97,928,566.97,922,560.97,916,560.97" style="stroke:#181818;stroke-width:0.5;"/><line style="stroke:#181818;stroke-width:0.5;" x1="922" x2="922" y1="560.97" y2="566.97"/><line style="stroke:#181818;stroke-width:0.5;" x1="928" x2="922" y1="566.97" y2="566.97"/><text fill="#000000" font-family="sans-serif" font-size="14" lengthAdjust="spacing" textLength="40" x="873" y="581.9651">/code</text></g><!--entity b5e9a391a4d41e9643dd56c4c3226427--><g id="elem_b5e9a391a4d41e9643dd56c4c3226427"><rect fill="#F1F1F1" height="111.4844" rx="2.5" ry="2.5" style="stroke:#181818;stroke-width:0.5;" width="316" x="1644" y="86.74"/><rect fill="#F1F1F1" height="10" style="stroke:#181818;stroke-width:0.5;" width="15" x="1940" y="91.74"/><rect fill="#F1F1F1" height="2" style="stroke:#181818;stroke-width:0.5;" width="4" x="1938" y="93.74"/><rect fill="#F1F1F1" height="2" style="stroke:#181818;stroke-width:0.5;" width="4" x="1938" y="97.74"/><text fill="#000000" font-family="sans-serif" font-size="14" font-weight="bold" lengthAdjust="spacing" textLength="276" x="1659" y="119.7351">django_tenants_pgadmin_container</text><text fill="#000000" font-family="sans-serif" font-size="14" lengthAdjust="spacing" textLength="4" x="1659" y="136.032">&#160;</text><text fill="#000000" font-family="sans-serif" font-size="14" lengthAdjust="spacing" textLength="169" x="1659" y="152.3289">image: dpage/pgadmin4</text><text fill="#000000" font-family="sans-serif" font-size="14" lengthAdjust="spacing" textLength="163" x="1659" y="168.6257">restart: unless-stopped</text><text fill="#000000" font-family="sans-serif" font-size="14" lengthAdjust="spacing" textLength="4" x="1659" y="184.9226">&#160;</text></g><!--entity 26b4d6322687836131026ba786c69bd9--><g id="elem_26b4d6322687836131026ba786c69bd9"><ellipse cx="1899" cy="328.97" fill="#F1F1F1" rx="8" ry="8" style="stroke:#181818;stroke-width:0.5;"/><text fill="#000000" font-family="sans-serif" font-size="14" lengthAdjust="spacing" textLength="18" x="1890" y="358.9651">80</text></g><!--entity 981e153bb73cbbd260e8326126857da1--><g id="elem_981e153bb73cbbd260e8326126857da1"><rect fill="#F1F1F1" height="39.2969" rx="2.5" ry="2.5" style="stroke:#181818;stroke-width:0.5;" width="132" x="1736" y="555.97"/><polygon fill="#F1F1F1" points="1851,560.97,1851,574.97,1863,574.97,1863,566.97,1857,560.97,1851,560.97" style="stroke:#181818;stroke-width:0.5;"/><line style="stroke:#181818;stroke-width:0.5;" x1="1857" x2="1857" y1="560.97" y2="566.97"/><line style="stroke:#181818;stroke-width:0.5;" x1="1863" x2="1857" y1="566.97" y2="566.97"/><text fill="#000000" font-family="sans-serif" font-size="14" lengthAdjust="spacing" textLength="102" x="1746" y="581.9651">/root/.pgadmin</text></g><!--entity 3c217ea98bfddc0f9ff1c849de325d93--><g id="elem_3c217ea98bfddc0f9ff1c849de325d93"><rect fill="#F1F1F1" height="95.1875" rx="2.5" ry="2.5" style="stroke:#181818;stroke-width:0.5;" width="174" x="2161" y="94.89"/><rect fill="#F1F1F1" height="10" style="stroke:#181818;stroke-width:0.5;" width="15" x="2315" y="99.89"/><rect fill="#F1F1F1" height="2" style="stroke:#181818;stroke-width:0.5;" width="4" x="2313" y="101.89"/><rect fill="#F1F1F1" height="2" style="stroke:#181818;stroke-width:0.5;" width="4" x="2313" y="105.89"/><text fill="#000000" font-family="sans-serif" font-size="14" font-weight="bold" lengthAdjust="spacing" textLength="40" x="2176" y="127.8851">redis</text><text fill="#000000" font-family="sans-serif" font-size="14" lengthAdjust="spacing" textLength="4" x="2176" y="144.182">&#160;</text><text fill="#000000" font-family="sans-serif" font-size="14" lengthAdjust="spacing" textLength="134" x="2176" y="160.4789">image: redis:6.0.10</text><text fill="#000000" font-family="sans-serif" font-size="14" lengthAdjust="spacing" textLength="4" x="2176" y="176.7757">&#160;</text></g><!--entity 09876deab5af8de0c168ec3aa053742d--><g id="elem_09876deab5af8de0c168ec3aa053742d"><ellipse cx="2248" cy="328.97" fill="#F1F1F1" rx="8" ry="8" style="stroke:#181818;stroke-width:0.5;"/><text fill="#000000" font-family="sans-serif" font-size="14" lengthAdjust="spacing" textLength="36" x="2230" y="358.9651">6379</text></g><!--entity c133dae7a45c449457a1a9b2344d3ffc--><g id="elem_c133dae7a45c449457a1a9b2344d3ffc"><ellipse cx="511" cy="465.97" fill="#F1F1F1" rx="8" ry="8" style="stroke:#181818;stroke-width:0.5;"/><text fill="#000000" font-family="sans-serif" font-size="14" lengthAdjust="spacing" textLength="36" x="493" y="495.9651">5433</text></g><!--entity 6b82fe368b2181b8bc2f4a6ba0525a6b--><g id="elem_6b82fe368b2181b8bc2f4a6ba0525a6b"><ellipse cx="1585" cy="465.97" fill="#F1F1F1" rx="8" ry="8" style="stroke:#181818;stroke-width:0.5;"/><text fill="#000000" font-family="sans-serif" font-size="14" lengthAdjust="spacing" textLength="36" x="1567" y="495.9651">8088</text></g><!--entity 600c44c1349e9154dce569ba37e2d70b--><g id="elem_600c44c1349e9154dce569ba37e2d70b"><ellipse cx="1049" cy="465.97" fill="#F1F1F1" rx="8" ry="8" style="stroke:#181818;stroke-width:0.5;"/><text fill="#000000" font-family="sans-serif" font-size="14" lengthAdjust="spacing" textLength="36" x="1031" y="495.9651">8080</text></g><!--entity 4cdf3d64c60179c23f74fd96f576b933--><g id="elem_4cdf3d64c60179c23f74fd96f576b933"><ellipse cx="2089" cy="465.97" fill="#F1F1F1" rx="8" ry="8" style="stroke:#181818;stroke-width:0.5;"/><text fill="#000000" font-family="sans-serif" font-size="14" lengthAdjust="spacing" textLength="179" x="1999.5" y="495.9651">${PGADMIN_PORT-5050}</text></g><!--entity c896127ab1831787795a6fc7c8465c9a--><g id="elem_c896127ab1831787795a6fc7c8465c9a"><ellipse cx="2248" cy="465.97" fill="#F1F1F1" rx="8" ry="8" style="stroke:#181818;stroke-width:0.5;"/><text fill="#000000" font-family="sans-serif" font-size="14" lengthAdjust="spacing" textLength="36" x="2230" y="495.9651">6379</text></g><!--entity 8d26c49c05edf1d57b12a478a6e5ce36--><g id="elem_8d26c49c05edf1d57b12a478a6e5ce36"><rect fill="#F1F1F1" height="39.2969" rx="2.5" ry="2.5" style="stroke:#181818;stroke-width:0.5;" width="136" x="174" y="674.26"/><polygon fill="#F1F1F1" points="293,679.26,293,693.26,305,693.26,305,685.26,299,679.26,293,679.26" style="stroke:#181818;stroke-width:0.5;"/><line style="stroke:#181818;stroke-width:0.5;" x1="299" x2="299" y1="679.26" y2="685.26"/><line style="stroke:#181818;stroke-width:0.5;" x1="305" x2="299" y1="685.26" y2="685.26"/><text fill="#000000" font-family="sans-serif" font-size="14" lengthAdjust="spacing" textLength="106" x="184" y="700.2551">./postgres-data</text></g><!--entity 58b9e70b65a77700ba66e9c64d6b9f89--><g id="elem_58b9e70b65a77700ba66e9c64d6b9f89"><rect fill="#F1F1F1" height="39.2969" rx="2.5" ry="2.5" style="stroke:#181818;stroke-width:0.5;" width="34" x="1017" y="674.26"/><polygon fill="#F1F1F1" points="1034,679.26,1034,693.26,1046,693.26,1046,685.26,1040,679.26,1034,679.26" style="stroke:#181818;stroke-width:0.5;"/><line style="stroke:#181818;stroke-width:0.5;" x1="1040" x2="1040" y1="679.26" y2="685.26"/><line style="stroke:#181818;stroke-width:0.5;" x1="1046" x2="1040" y1="685.26" y2="685.26"/><text fill="#000000" font-family="sans-serif" font-size="14" lengthAdjust="spacing" textLength="4" x="1027" y="700.2551">.</text></g><!--entity dad57ac197272472b4811cd8201c2b86--><g id="elem_dad57ac197272472b4811cd8201c2b86"><rect fill="#F1F1F1" height="39.2969" rx="2.5" ry="2.5" style="stroke:#181818;stroke-width:0.5;" width="99" x="1752.5" y="674.26"/><polygon fill="#F1F1F1" points="1834.5,679.26,1834.5,693.26,1846.5,693.26,1846.5,685.26,1840.5,679.26,1834.5,679.26" style="stroke:#181818;stroke-width:0.5;"/><line style="stroke:#181818;stroke-width:0.5;" x1="1840.5" x2="1840.5" y1="679.26" y2="685.26"/><line style="stroke:#181818;stroke-width:0.5;" x1="1846.5" x2="1840.5" y1="685.26" y2="685.26"/><text fill="#000000" font-family="sans-serif" font-size="14" lengthAdjust="spacing" textLength="69" x="1762.5" y="700.2551">./pgadmin</text></g><!--link da404c7886cf96d0280162348d39afec to 43bb4cb118845f08e05e758d93c57c6e--><g id="link_da404c7886cf96d0280162348d39afec_43bb4cb118845f08e05e758d93c57c6e"><path codeLine="73" d="M295.06,223.06 C320.8,261.68 348.56,303.31 359.82,320.2 " fill="none" id="da404c7886cf96d0280162348d39afec-43bb4cb118845f08e05e758d93c57c6e" style="stroke:#181818;stroke-width:1.0;"/></g><!--link 43bb4cb118845f08e05e758d93c57c6e to c133dae7a45c449457a1a9b2344d3ffc--><g id="link_43bb4cb118845f08e05e758d93c57c6e_c133dae7a45c449457a1a9b2344d3ffc"><path codeLine="74" d="M373.27,337.61 C398.84,361.26 476.52,433.08 502.46,457.07 " fill="none" id="43bb4cb118845f08e05e758d93c57c6e-c133dae7a45c449457a1a9b2344d3ffc" style="stroke:#181818;stroke-width:1.0;"/></g><!--link d5baecb173d637b4e1f821d6b00b6f89 to 8d26c49c05edf1d57b12a478a6e5ce36--><g id="link_d5baecb173d637b4e1f821d6b00b6f89_8d26c49c05edf1d57b12a478a6e5ce36"><path codeLine="75" d="M242,595.56 C242,617.18 242,652.35 242,673.98 " fill="none" id="d5baecb173d637b4e1f821d6b00b6f89-8d26c49c05edf1d57b12a478a6e5ce36" style="stroke:#181818;stroke-width:1.0;"/><text fill="#000000" font-family="sans-serif" font-size="13" lengthAdjust="spacing" textLength="7" x="243" y="640.3269">z</text></g><!--link da404c7886cf96d0280162348d39afec to d5baecb173d637b4e1f821d6b00b6f89--><g id="link_da404c7886cf96d0280162348d39afec_d5baecb173d637b4e1f821d6b00b6f89"><path codeLine="76" d="M242,223.06 C242,325.98 242,492.8 242,549.77 " fill="none" id="da404c7886cf96d0280162348d39afec-to-d5baecb173d637b4e1f821d6b00b6f89" style="stroke:#181818;stroke-width:1.0;stroke-dasharray:7.0,7.0;"/><polygon fill="#181818" points="242,555.77,246,546.77,242,550.77,238,546.77,242,555.77" style="stroke:#181818;stroke-width:1.0;"/><text fill="#000000" font-family="sans-serif" font-size="13" lengthAdjust="spacing" textLength="23" x="243" y="403.0369">use</text></g><!--link 712e62727bdd6a1240840b5bbcb5f8da to 3b656adaf13d7ac518f1b07b0f10bb34--><g id="link_712e62727bdd6a1240840b5bbcb5f8da_3b656adaf13d7ac518f1b07b0f10bb34"><path codeLine="77" d="M1364.17,214.81 C1391.12,255.57 1421.88,302.08 1433.85,320.19 " fill="none" id="712e62727bdd6a1240840b5bbcb5f8da-3b656adaf13d7ac518f1b07b0f10bb34" style="stroke:#181818;stroke-width:1.0;"/></g><!--link 3b656adaf13d7ac518f1b07b0f10bb34 to 6b82fe368b2181b8bc2f4a6ba0525a6b--><g id="link_3b656adaf13d7ac518f1b07b0f10bb34_6b82fe368b2181b8bc2f4a6ba0525a6b"><path codeLine="78" d="M1447.27,337.61 C1472.84,361.26 1550.52,433.08 1576.46,457.07 " fill="none" id="3b656adaf13d7ac518f1b07b0f10bb34-6b82fe368b2181b8bc2f4a6ba0525a6b" style="stroke:#181818;stroke-width:1.0;"/></g><!--link 4ae8434c535c76df893919c2b9c9c766 to 58b9e70b65a77700ba66e9c64d6b9f89--><g id="link_4ae8434c535c76df893919c2b9c9c766_58b9e70b65a77700ba66e9c64d6b9f89"><path codeLine="79" d="M1215.65,595.56 C1168.57,620.79 1087.1,664.45 1051.5,683.53 " fill="none" id="4ae8434c535c76df893919c2b9c9c766-58b9e70b65a77700ba66e9c64d6b9f89" style="stroke:#181818;stroke-width:1.0;"/><text fill="#000000" font-family="sans-serif" font-size="13" lengthAdjust="spacing" textLength="7" x="1156" y="640.3269">z</text></g><!--link 712e62727bdd6a1240840b5bbcb5f8da to 4ae8434c535c76df893919c2b9c9c766--><g id="link_712e62727bdd6a1240840b5bbcb5f8da_4ae8434c535c76df893919c2b9c9c766"><path codeLine="80" d="M1306.1,214.67 C1290.54,316.32 1263.7588,491.2992 1254.7888,549.8392 " fill="none" id="712e62727bdd6a1240840b5bbcb5f8da-to-4ae8434c535c76df893919c2b9c9c766" style="stroke:#181818;stroke-width:1.0;stroke-dasharray:7.0,7.0;"/><polygon fill="#181818" points="1253.88,555.77,1259.197,547.4797,1254.6373,550.8277,1251.2893,546.268,1253.88,555.77" style="stroke:#181818;stroke-width:1.0;"/><text fill="#000000" font-family="sans-serif" font-size="13" lengthAdjust="spacing" textLength="23" x="1280" y="403.0369">use</text></g><!--link dca1fb4971ec22e45b398666e4e42319 to 77f67177125d86cd65022fe3226b748f--><g id="link_dca1fb4971ec22e45b398666e4e42319_77f67177125d86cd65022fe3226b748f"><path codeLine="81" d="M859.41,239.24 C887.35,272.93 914.78,305.99 926.74,320.42 " fill="none" id="dca1fb4971ec22e45b398666e4e42319-77f67177125d86cd65022fe3226b748f" style="stroke:#181818;stroke-width:1.0;"/></g><!--link 77f67177125d86cd65022fe3226b748f to 600c44c1349e9154dce569ba37e2d70b--><g id="link_77f67177125d86cd65022fe3226b748f_600c44c1349e9154dce569ba37e2d70b"><path codeLine="82" d="M939.57,337.61 C959.89,361.26 1021.6,433.08 1042.21,457.07 " fill="none" id="77f67177125d86cd65022fe3226b748f-600c44c1349e9154dce569ba37e2d70b" style="stroke:#181818;stroke-width:1.0;"/></g><!--link 347d2669b673f390c7a7435cc1adde9d to 58b9e70b65a77700ba66e9c64d6b9f89--><g id="link_347d2669b673f390c7a7435cc1adde9d_58b9e70b65a77700ba66e9c64d6b9f89"><path codeLine="83" d="M920.15,595.56 C947.1,618.6 992.02,657.02 1016.61,678.04 " fill="none" id="347d2669b673f390c7a7435cc1adde9d-58b9e70b65a77700ba66e9c64d6b9f89" style="stroke:#181818;stroke-width:1.0;"/><text fill="#000000" font-family="sans-serif" font-size="13" lengthAdjust="spacing" textLength="7" x="975" y="640.3269">z</text></g><!--link dca1fb4971ec22e45b398666e4e42319 to 347d2669b673f390c7a7435cc1adde9d--><g id="link_dca1fb4971ec22e45b398666e4e42319_347d2669b673f390c7a7435cc1adde9d"><path codeLine="84" d="M806.26,239.43 C834.72,343.4 876.456,495.8929 891.256,549.9629 " fill="none" id="dca1fb4971ec22e45b398666e4e42319-to-347d2669b673f390c7a7435cc1adde9d" style="stroke:#181818;stroke-width:1.0;stroke-dasharray:7.0,7.0;"/><polygon fill="#181818" points="892.84,555.75,894.322,546.0133,891.52,550.9274,886.6058,548.1253,892.84,555.75" style="stroke:#181818;stroke-width:1.0;"/><text fill="#000000" font-family="sans-serif" font-size="13" lengthAdjust="spacing" textLength="23" x="852" y="403.0369">use</text></g><!--link b5e9a391a4d41e9643dd56c4c3226427 to 26b4d6322687836131026ba786c69bd9--><g id="link_b5e9a391a4d41e9643dd56c4c3226427_26b4d6322687836131026ba786c69bd9"><path codeLine="85" d="M1830.84,198.33 C1853.85,242.09 1883.96,299.37 1894.85,320.07 " fill="none" id="b5e9a391a4d41e9643dd56c4c3226427-26b4d6322687836131026ba786c69bd9" style="stroke:#181818;stroke-width:1.0;"/></g><!--link 26b4d6322687836131026ba786c69bd9 to 4cdf3d64c60179c23f74fd96f576b933--><g id="link_26b4d6322687836131026ba786c69bd9_4cdf3d64c60179c23f74fd96f576b933"><path codeLine="86" d="M1907.91,336.3 C1939.9,359.02 2048.73,436.35 2080.33,458.81 " fill="none" id="26b4d6322687836131026ba786c69bd9-4cdf3d64c60179c23f74fd96f576b933" style="stroke:#181818;stroke-width:1.0;"/></g><!--link 981e153bb73cbbd260e8326126857da1 to dad57ac197272472b4811cd8201c2b86--><g id="link_981e153bb73cbbd260e8326126857da1_dad57ac197272472b4811cd8201c2b86"><path codeLine="87" d="M1802,595.56 C1802,617.18 1802,652.35 1802,673.98 " fill="none" id="981e153bb73cbbd260e8326126857da1-dad57ac197272472b4811cd8201c2b86" style="stroke:#181818;stroke-width:1.0;"/><text fill="#000000" font-family="sans-serif" font-size="13" lengthAdjust="spacing" textLength="14" x="1803" y="640.3269">rw</text></g><!--link b5e9a391a4d41e9643dd56c4c3226427 to 981e153bb73cbbd260e8326126857da1--><g id="link_b5e9a391a4d41e9643dd56c4c3226427_981e153bb73cbbd260e8326126857da1"><path codeLine="88" d="M1802,198.52 C1802,295.91 1802,488.14 1802,549.85 " fill="none" id="b5e9a391a4d41e9643dd56c4c3226427-to-981e153bb73cbbd260e8326126857da1" style="stroke:#181818;stroke-width:1.0;stroke-dasharray:7.0,7.0;"/><polygon fill="#181818" points="1802,555.85,1806,546.85,1802,550.85,1798,546.85,1802,555.85" style="stroke:#181818;stroke-width:1.0;"/><text fill="#000000" font-family="sans-serif" font-size="13" lengthAdjust="spacing" textLength="23" x="1803" y="403.0369">use</text></g><!--link 3c217ea98bfddc0f9ff1c849de325d93 to 09876deab5af8de0c168ec3aa053742d--><g id="link_3c217ea98bfddc0f9ff1c849de325d93_09876deab5af8de0c168ec3aa053742d"><path codeLine="89" d="M2248,190.51 C2248,235.14 2248,298.51 2248,320.28 " fill="none" id="3c217ea98bfddc0f9ff1c849de325d93-09876deab5af8de0c168ec3aa053742d" style="stroke:#181818;stroke-width:1.0;"/></g><!--link 09876deab5af8de0c168ec3aa053742d to c896127ab1831787795a6fc7c8465c9a--><g id="link_09876deab5af8de0c168ec3aa053742d_c896127ab1831787795a6fc7c8465c9a"><path codeLine="90" d="M2248,337.61 C2248,361.26 2248,433.08 2248,457.07 " fill="none" id="09876deab5af8de0c168ec3aa053742d-c896127ab1831787795a6fc7c8465c9a" style="stroke:#181818;stroke-width:1.0;"/></g><!--SRC=[pLPDRnit4BtlhrW8FRG6B7FuCKCQS047Dj8UMXjsYXoAmY0vfA72NhcIaXGDyjyxMicEr3gbUoZGYtQrc9tXl3VptiQxk_c7-zdli-6s6-PS-ibPclHnsJCHk-AKYGpMXEgyYza6gz4duo3r7xi-p-yVvaCPLZr7gsmcxp7NWAoqLu3QMCycn5fo_tDtSC2_nk5sVhCgGnnMonjE1mTTDxkFj-MuVvWlLxUBikpAy7wsc0_talMulxouVlFwwlpwvgVhywkJ_VU_47bvUdtzzkBgx6NHPw_-CUxizCtfgzFhyvlBYwit9yuQqtM_T5z_qq_aNeyuMPEIpGd0U-kgyaMvGivpCDbHnjB5nMfMOrxrawFtSN5qDqj7Zyt-TdV4SHKtUBiKY-GXmsWesGBLQs1CIYMiFdIVjloyBHk2j4EAhkH0KZ5Hp3e7RvKnHI7umFi44UY2cZGbPeoWhPBOv5BAoLNFyJc2FfIHeUSHQJBo6RkNCF8K_L96lXCAJpWzyk6LzoCi9g73oB62OG75WQ-G52LLGQLax2uVMG3Ta1YBjyPcPrmcP87R10XPfv23FC0dyC_6enrkZoRNvMfCuC7L061TPa4P1U98NXcBo9orlBc_BJb2JJOGbAnriIwPu16ns6ArWR13nbwflx7nN-t7_uvbMPQL47VS3_CTnjM8FL550f89Topwm-YKrhKOhJ6HzVLPneqbreWX8PbgWieKoGhx6I9p2VmbnXzk8z_FXZ67akK99bbhg5WeQ2m4-KMhq7ePW7tIaoiXobX5on8Sq1fcXzdczK6jfkSsS5lj9i-7LPmDPR6ZcFmWbwDjXFsCqBlXhYoNXylL_E6Xy6UqDgA1oOg-I4LFtY0OKF98PXMpOC5X5wl5VBuwckus73mKS29uP79AWfygtcW4oUQ88po1TbLujjmiXeXD2agynAPA2fG9ScC02tXJy2yOcQo1IWm-LTaRLKEjaBqDB6mwaTGHeyKw-GuGu_zZdAefgCTsHKB3XgFWPHrBJ2wAp1ML0Nt99aRb35czvdahvsQCps0Cnq9HLjcAtJcA44CIAxDiQitxOeF9hoTDB563X-HJrjL60LGvxUIwFwYebEIK2ZQK0CvoBavGZp8-cabjeh_wUFdwzEo7xtySFUVGAQS-RJGgSnLli1aLa6YJgMGh1woEKCRGxFUTVH1UA2Q16SWJ1JbFpIHeeiiXxX0zVVAZmoStyaAkk7qMQ-4Ax2Y1ZfPynEAoDBpx-lY2yoaKwG5T92Bnh2Xo5ZBAjAMmjg-zUZipnL6onmn1l4bRqibwWCnUAn3zzTWrFoqE-R3jmgs0CKkJ_9P9ZrbQsFN7_UIFIRklwPIdqs-R7mRhTE-MPT8rBNvzkAOzjWB6BCsvRndgcAKrCrkWcdrjWMhMV0IgQR_hmpLTfHMm0QgryYqV-ZT0DVlQ0jMi-GXKqxBMXsjQIYjWiy0jTMjvpvYb9IRhpXOVNj3O5gbcqKUaciQrFbtJYre16v5gAFkV]--></g></svg>